<svg width="67" height="46" viewBox="0 0 67 46" fill="none" xmlns="http://www.w3.org/2000/svg">
<g clip-path="url(#clip0_354_462)">
<path d="M55.5538 26.854L63.4314 34.6591L55.5538 42.4643L47.6762 34.6591L55.5538 26.854ZM55.5538 23.3182C54.6438 23.3182 53.7249 23.663 53.029 24.3524L45.1514 32.1576C43.7597 33.5365 43.7597 35.7729 45.1514 37.1607L53.029 44.9658C53.7249 45.6553 54.6349 46 55.5538 46C56.4727 46 57.3827 45.6553 58.0786 44.9658L65.9562 37.1607C66.6253 36.4977 67 35.5961 67 34.6591C67 33.7222 66.6253 32.8205 65.9562 32.1576L58.0786 24.3524C57.3827 23.663 56.4727 23.3182 55.5538 23.3182Z" fill="currentColor"/>
<path d="M31.7603 11.1817C36.569 11.1817 40.4766 15.0445 40.4766 19.8178C40.4766 24.591 36.5779 28.4538 31.7603 28.4538C26.9428 28.4538 23.0441 24.591 23.0441 19.8178C23.0441 15.0445 26.9428 11.1817 31.7603 11.1817ZM31.7603 7.646C24.989 7.646 19.4755 13.1087 19.4755 19.8178C19.4755 26.5269 24.989 31.9896 31.7603 31.9896C38.5317 31.9896 44.0452 26.5269 44.0452 19.8178C44.0452 13.1087 38.5317 7.646 31.7603 7.646Z" fill="currentColor"/>
<path d="M3.59534 15.4954V11.9597C8.34154 11.9597 12.2045 8.13222 12.2045 3.42969H15.7731C15.7731 10.0857 10.3132 15.4954 3.59534 15.4954Z" fill="currentColor"/>
<path d="M15.7731 36.2414H12.2045C12.2045 31.5388 8.34154 27.7114 3.59534 27.7114V24.1757C10.3132 24.1757 15.7731 29.5853 15.7731 36.2414Z" fill="currentColor"/>
<path d="M59.9074 15.4954C53.1896 15.4954 47.7297 10.0857 47.7297 3.42969H51.2983C51.2983 8.13222 55.1612 11.9597 59.9074 11.9597V15.4954Z" fill="currentColor"/>
<path d="M39.6647 39.7417H5.02277C2.25712 39.7417 0 37.5142 0 34.7652V4.97656C0 2.22752 2.2482 0 5.02277 0H58.4979C61.2635 0 63.5206 2.22752 63.5206 4.97656V20.7636C63.5206 21.736 62.7177 22.5315 61.7364 22.5315C60.755 22.5315 59.9521 21.736 59.9521 20.7636V4.97656C59.9521 4.18102 59.3008 3.53574 58.4979 3.53574H5.02277C4.21984 3.53574 3.56858 4.18102 3.56858 4.97656V34.7652C3.56858 35.5607 4.21984 36.206 5.02277 36.206H39.6647C40.6461 36.206 41.449 37.0015 41.449 37.9739C41.449 38.9462 40.6461 39.7417 39.6647 39.7417Z" fill="currentColor"/>
</g>
<defs>
<clipPath id="clip0_354_462">
<rect width="67" height="46" fill="white"/>
</clipPath>
</defs>
</svg>
