<svg width="65" height="57" viewBox="0 0 65 57" fill="none" xmlns="http://www.w3.org/2000/svg">
<g clip-path="url(#clip0_2018_104)">
<path d="M57.6622 55.1551H25.9208C24.9094 55.1551 24.0818 54.3453 24.0818 53.3556C24.0818 52.3658 24.9094 51.556 25.9208 51.556H57.6622C59.6944 51.556 61.3403 49.9455 61.3403 47.957V22.0438C61.3403 20.0553 59.6944 18.4448 57.6622 18.4448H12.0363C11.0248 18.4448 10.1973 17.635 10.1973 16.6452C10.1973 15.6555 11.0248 14.8457 12.0363 14.8457H57.6622C61.7173 14.8457 65.0183 18.0759 65.0183 22.0438V47.957C65.0183 51.9249 61.7173 55.1551 57.6622 55.1551Z" fill="#08E0A3"/>
<path d="M51.9343 18.2292C50.9228 18.2292 50.0952 17.4194 50.0952 16.4297V7.19811C50.0952 5.20963 48.4493 3.59905 46.4172 3.59905H11.8253C10.8139 3.59905 9.98633 2.78927 9.98633 1.79953C9.98633 0.809787 10.8139 0 11.8253 0H46.4172C50.4722 0 53.7733 3.23015 53.7733 7.19811V16.4297C53.7733 17.4194 52.9457 18.2292 51.9343 18.2292Z" fill="#08E0A3"/>
<path d="M11.7972 18.4451C6.61117 18.4451 2.39062 14.2972 2.39062 9.20458C2.39062 4.11192 6.61117 0 11.7972 0C12.8086 0 13.6362 0.809787 13.6362 1.79953C13.6362 2.78927 12.8086 3.59905 11.7972 3.59905C8.63408 3.59905 6.06866 6.11839 6.06866 9.20458C6.06866 12.2908 8.64328 14.8461 11.7972 14.8461C12.8086 14.8461 13.6362 15.6559 13.6362 16.6456C13.6362 17.6354 12.8086 18.4451 11.7972 18.4451Z" fill="#08E0A3"/>
<path d="M4.22964 33.7594C3.21818 33.7594 2.39062 32.9497 2.39062 31.9599V8.73703C2.39062 7.74729 3.21818 6.9375 4.22964 6.9375C5.2411 6.9375 6.06866 7.74729 6.06866 8.73703V31.9509C6.06866 32.9407 5.2411 33.7504 4.22964 33.7504V33.7594Z" fill="#08E0A3"/>
<path d="M12.4679 37.4301L20.5136 45.303L12.4679 53.176L4.42217 45.303L12.4679 37.4301ZM12.4679 33.8311C11.53 33.8311 10.5829 34.182 9.86566 34.8838L1.81996 42.7567C1.13033 43.4315 0.744141 44.3493 0.744141 45.303C0.744141 46.2568 1.13033 47.1745 1.81996 47.8494L9.86566 55.7223C10.5829 56.4241 11.5208 56.775 12.4679 56.775C13.415 56.775 14.3529 56.4241 15.0701 55.7223L23.1158 47.8494C24.5502 46.4457 24.5502 44.1693 23.1158 42.7567L15.0701 34.8838C14.3529 34.182 13.415 33.8311 12.4679 33.8311Z" fill="#08E0A3"/>
<path d="M50.7937 37.3583C52.6473 37.3583 54.1499 35.888 54.1499 34.0742C54.1499 32.2604 52.6473 30.79 50.7937 30.79C48.9401 30.79 47.4375 32.2604 47.4375 34.0742C47.4375 35.888 48.9401 37.3583 50.7937 37.3583Z" fill="#08E0A3"/>
</g>
<defs>
<clipPath id="clip0_2018_104">
<rect width="65" height="57" fill="white"/>
</clipPath>
</defs>
</svg>
