<svg width="51" height="63" viewBox="0 0 51 63" fill="none" xmlns="http://www.w3.org/2000/svg">
<g clip-path="url(#clip0_354_227)">
<path d="M30.9566 54.3184C30.4805 54.3184 30.0044 54.1311 29.6403 53.7659L24.8138 48.9241C24.0857 48.1936 24.0857 47.0042 24.8138 46.2737C25.542 45.5432 26.7276 45.5432 27.4558 46.2737L30.9566 49.7857L38.7611 41.9563C39.4893 41.2258 40.6749 41.2258 41.4031 41.9563C42.1312 42.6868 42.1312 43.8762 41.4031 44.6067L32.2823 53.7565C31.9182 54.1218 31.4421 54.3091 30.9659 54.3091L30.9566 54.3184Z" fill="currentColor"/>
<path d="M40.6655 15.6025H10.185C9.15813 15.6025 8.31793 14.7596 8.31793 13.7294C8.31793 12.6993 9.15813 11.8564 10.185 11.8564H40.6655C41.6925 11.8564 42.5326 12.6993 42.5326 13.7294C42.5326 14.7596 41.6925 15.6025 40.6655 15.6025Z" fill="currentColor"/>
<path d="M40.6655 24.1342H10.185C9.15813 24.1342 8.31793 23.2913 8.31793 22.2612C8.31793 21.231 9.15813 20.3881 10.185 20.3881H40.6655C41.6925 20.3881 42.5326 21.231 42.5326 22.2612C42.5326 23.2913 41.6925 24.1342 40.6655 24.1342Z" fill="currentColor"/>
<path d="M40.6655 32.666H10.185C9.15813 32.666 8.31793 31.8231 8.31793 30.7929C8.31793 29.7627 9.15813 28.9199 10.185 28.9199H40.6655C41.6925 28.9199 42.5326 29.7627 42.5326 30.7929C42.5326 31.8231 41.6925 32.666 40.6655 32.666Z" fill="currentColor"/>
<path d="M43.877 3.7461C45.7348 3.7461 47.2658 5.27263 47.2658 7.14568V55.8543C47.2658 57.718 45.7441 59.2539 43.877 59.2539H7.12301C5.26524 59.2539 3.73421 57.7274 3.73421 55.8543V7.14568C3.73421 5.282 5.2559 3.7461 7.12301 3.7461H43.877ZM43.877 0H7.12301C3.19275 0 0 3.20291 0 7.14568V55.8543C0 59.7971 3.19275 63 7.12301 63H43.877C47.8072 63 51 59.7971 51 55.8543V7.14568C51 3.20291 47.8072 0 43.877 0Z" fill="currentColor"/>
</g>
<defs>
<clipPath id="clip0_354_227">
<rect width="51" height="63" fill="white"/>
</clipPath>
</defs>
</svg>
