<svg width="65" height="47" viewBox="0 0 65 47" fill="none" xmlns="http://www.w3.org/2000/svg">
<g clip-path="url(#clip0_158_355)">
<path d="M57.6622 45.479H25.9208C24.9094 45.479 24.0818 44.8113 24.0818 43.9952C24.0818 43.1791 24.9094 42.5114 25.9208 42.5114H57.6622C59.6944 42.5114 61.3403 41.1834 61.3403 39.5437V18.1767C61.3403 16.5371 59.6944 15.2091 57.6622 15.2091H12.0363C11.0248 15.2091 10.1973 14.5414 10.1973 13.7253C10.1973 12.9092 11.0248 12.2415 12.0363 12.2415H57.6622C61.7173 12.2415 65.0183 14.9049 65.0183 18.1767V39.5437C65.0183 42.8156 61.7173 45.479 57.6622 45.479V45.479Z" fill="currentColor"/>
<path d="M51.9338 15.0311C50.9223 15.0311 50.0948 14.3634 50.0948 13.5473V5.93528C50.0948 4.29566 48.4488 2.96764 46.4167 2.96764H11.8249C10.8134 2.96764 9.98584 2.29992 9.98584 1.48382C9.98584 0.667719 10.8134 0 11.8249 0H46.4167C50.4718 0 53.7728 2.66346 53.7728 5.93528V13.5473C53.7728 14.3634 52.9452 15.0311 51.9338 15.0311V15.0311Z" fill="currentColor"/>
<path d="M11.7972 15.2092C6.61116 15.2092 2.39062 11.789 2.39062 7.58974C2.39062 3.39053 6.61116 0 11.7972 0C12.8086 0 13.6362 0.667719 13.6362 1.48382C13.6362 2.29992 12.8086 2.96764 11.7972 2.96764C8.63408 2.96764 6.06866 5.04499 6.06866 7.58974C6.06866 10.1345 8.64328 12.2415 11.7972 12.2415C12.8086 12.2415 13.6362 12.9092 13.6362 13.7253C13.6362 14.5414 12.8086 15.2092 11.7972 15.2092Z" fill="currentColor"/>
<path d="M4.22964 27.8366C3.21818 27.8366 2.39062 27.1688 2.39062 26.3527V7.20404C2.39062 6.38793 3.21818 5.72021 4.22964 5.72021C5.2411 5.72021 6.06866 6.38793 6.06866 7.20404V26.3453C6.06866 27.1614 5.2411 27.8291 4.22964 27.8291V27.8366Z" fill="currentColor"/>
<path d="M12.4684 30.8634L20.514 37.3551L12.4684 43.8468L4.42266 37.3551L12.4684 30.8634M12.4684 27.8958C11.5305 27.8958 10.5834 28.1851 9.86614 28.7638L1.82045 35.2555C1.13082 35.8119 0.744629 36.5687 0.744629 37.3551C0.744629 38.1415 1.13082 38.8983 1.82045 39.4547L9.86614 45.9464C10.5834 46.5251 11.5213 46.8145 12.4684 46.8145C13.4154 46.8145 14.3533 46.5251 15.0706 45.9464L23.1163 39.4547C24.5507 38.2973 24.5507 36.4203 23.1163 35.2555L15.0706 28.7638C14.3533 28.1851 13.4154 27.8958 12.4684 27.8958V27.8958Z" fill="currentColor"/>
<path d="M50.7937 30.8041C52.6473 30.8041 54.1499 29.5917 54.1499 28.0962C54.1499 26.6006 52.6473 25.3882 50.7937 25.3882C48.9401 25.3882 47.4375 26.6006 47.4375 28.0962C47.4375 29.5917 48.9401 30.8041 50.7937 30.8041Z" fill="currentColor"/>
</g>
<defs>
<clipPath id="clip0_158_355">
<rect width="65" height="47" fill="white"/>
</clipPath>
</defs>
</svg>
