<svg width="63" height="59" viewBox="0 0 63 59" fill="none" xmlns="http://www.w3.org/2000/svg">
<g clip-path="url(#clip0_354_240)">
<path d="M22.2318 17.3366C19.9486 15.0487 18.6632 11.9475 18.6632 8.71067C18.6632 8.24464 18.8492 7.80402 19.1706 7.48203C19.4919 7.16005 19.9401 6.97363 20.3968 6.97363H25.6143C28.8447 6.97363 31.9397 8.26158 34.2229 10.5494C36.5062 12.8372 37.7915 15.9384 37.7915 19.1753C37.7915 19.6413 37.6055 20.0819 37.2841 20.4039C36.9628 20.7259 36.5146 20.9123 36.058 20.9123H30.8404C27.6101 20.9123 24.515 19.6244 22.2318 17.3366ZM31.1194 12.422C29.5635 11.151 27.627 10.4562 25.6228 10.4562H22.3164C22.7223 12.422 23.7878 14.1929 25.3437 15.4639C26.8997 16.7349 28.8362 17.4298 30.8404 17.4298H34.1468C33.7409 15.4639 32.6754 13.693 31.1194 12.422Z" fill="currentColor"/>
<path d="M34.8318 13.4387C34.502 13.1083 34.3245 12.6677 34.3245 12.2101C34.3245 8.97329 35.6098 5.87204 37.8931 3.58423C40.1763 1.28795 43.2713 0 46.5016 0H51.7192C52.1843 0 52.6241 0.186414 52.9454 0.508402C53.2667 0.830389 53.4528 1.27948 53.4528 1.73704C53.4528 4.97386 52.1674 8.07511 49.8842 10.3629C47.601 12.6507 44.5059 13.9387 41.2756 13.9387H36.058C35.5929 13.9387 35.1532 13.7523 34.8318 13.4303V13.4387ZM46.5016 3.49102C44.4975 3.49102 42.5525 4.18584 41.005 5.45684C39.449 6.72785 38.3835 8.49878 37.9776 10.4646H41.2841C43.2882 10.4646 45.2332 9.76978 46.7807 8.49878C48.3367 7.22778 49.4022 5.45684 49.8081 3.49102H46.5016Z" fill="currentColor"/>
<path d="M36.058 27.8943C36.5231 27.8943 36.9628 27.7079 37.2841 27.3859C37.6055 27.0639 37.7915 26.6148 37.7915 26.1573V12.2016C37.7915 11.5746 37.4617 11.0069 36.9205 10.6934C36.3793 10.3799 35.7197 10.3799 35.1785 10.6934C34.6373 11.0069 34.3075 11.5831 34.3075 12.2016V26.1488C34.3075 26.6148 34.4935 27.0554 34.8149 27.3774C35.1362 27.6994 35.5844 27.8858 36.0411 27.8858L36.058 27.8943Z" fill="currentColor"/>
<path d="M17.2088 59C16.7775 59 16.3462 58.8305 16.0164 58.5001L0.49897 42.9515C-0.160627 42.2905 -0.160627 41.2144 0.49897 40.5535L10.5367 30.4956C10.858 30.1736 11.2808 29.9957 11.729 29.9957H32.092C35.1786 29.9957 37.7916 32.0462 38.6541 34.8509L53.8164 24.8439C53.8164 24.8439 53.9179 24.7846 53.9348 24.7676C54.9073 24.2084 55.9728 23.9203 57.0383 23.9203C60.3278 23.9203 63 26.5979 63 29.894C63 31.6734 62.2136 33.3511 60.8521 34.4866C60.8352 34.495 60.7591 34.5628 60.7506 34.5713L38.3328 52.8992C38.0284 53.1449 37.6563 53.2805 37.2673 53.2805H23.5933L18.4011 58.4831C18.0713 58.8136 17.64 58.9831 17.2088 58.9831V59ZM4.08447 41.7567L17.2088 54.9074L21.6991 50.408C22.0204 50.086 22.4433 49.9081 22.8915 49.9081H36.65L58.6281 31.9361C58.6281 31.9361 58.7127 31.8683 58.7211 31.8598C59.2708 31.3938 59.6175 30.6736 59.6175 29.9025C59.6175 28.479 58.459 27.3181 57.0383 27.3181C56.5563 27.3181 56.0827 27.4452 55.6515 27.6994L38.6457 38.9266C37.7747 41.7228 35.1701 43.7564 32.092 43.7564H21.4792C20.549 43.7564 19.788 42.9938 19.788 42.0618C19.788 41.1297 20.549 40.3671 21.4792 40.3671H32.092C34.0116 40.3671 35.5676 38.7995 35.5676 36.8845C35.5676 34.9695 34.0031 33.402 32.092 33.402H12.4309L4.08447 41.7652V41.7567Z" fill="currentColor"/>
</g>
<defs>
<clipPath id="clip0_354_240">
<rect width="63" height="59" fill="white"/>
</clipPath>
</defs>
</svg>
