<svg width="71" height="55" viewBox="0 0 71 55" fill="none" xmlns="http://www.w3.org/2000/svg">
<path d="M46.3996 35.7275C43.4324 35.7275 41.0586 32.523 41.0586 28.403C41.0586 24.2831 43.4324 21.0786 46.3996 21.0786C49.3668 21.0786 51.7405 24.2831 51.7405 28.403C51.7405 32.523 49.2184 35.7275 46.3996 35.7275ZM25.1842 35.5749C22.217 35.5749 19.8432 32.3704 19.8432 28.2505C19.8432 24.2831 22.217 20.926 25.1842 20.926C28.1514 20.4683 30.3767 24.1305 30.5251 28.2505C30.5251 32.3704 28.1514 35.5749 25.1842 35.5749ZM61.3839 6.58237C58.12 3.9883 54.2626 2.0046 51.1471 0.783866C50.1086 0.32609 48.7733 0.478682 47.8832 1.24164C46.8447 1.85201 46.3996 3.07275 46.3996 4.29349C46.3996 5.51422 45.3611 6.58237 44.1742 6.58237H27.2612C26.0743 6.58237 25.0358 5.51422 25.0358 4.29349C25.0358 3.07275 24.4424 2.0046 23.5522 1.24164C22.6621 0.631275 21.3268 0.478682 20.2883 0.783866C17.1728 2.0046 13.3154 3.83571 10.0515 6.58237C6.78758 9.63421 0.259766 27.7927 0.259766 43.5097C0.259766 43.8149 0.259766 44.12 0.408125 44.2726C4.85891 52.36 17.1728 54.4963 19.8432 54.6489C20.2883 54.6489 20.8817 54.4963 21.0301 54.0385L23.8489 48.6978C21.6235 48.0874 19.2498 47.3245 16.5793 46.4089C14.799 45.7986 13.7605 43.6623 14.3539 41.6786C14.9474 39.8475 17.0244 38.7793 18.9531 39.5423C31.4153 44.12 38.8332 44.12 52.0372 39.5423C53.9659 38.9319 55.8946 39.8475 56.488 41.8312C57.0815 43.6623 56.1913 45.7986 54.2626 46.4089C51.7405 47.3245 49.3668 47.9348 46.993 48.5452L49.8118 54.0385C50.1086 54.4963 50.5536 54.6489 50.9987 54.6489C53.8176 54.4963 65.983 52.36 70.4338 44.2726C70.5822 43.9674 70.5822 43.8149 70.5822 43.5097C71.1756 27.7927 64.6478 9.63421 61.3839 6.58237Z" fill="currentColor"/>
</svg>
