<svg width="57" height="42" viewBox="0 0 57 42" fill="none" xmlns="http://www.w3.org/2000/svg">
<g clip-path="url(#clip0_352_124)">
<path d="M1.57369 42H55.4244C56.2113 42 56.9981 41.3668 56.9981 40.416C56.9981 39.624 56.369 38.832 55.4244 38.832H5.35204L21.256 22.8221L29.6014 31.2221C30.2305 31.8554 31.1751 31.8554 31.8061 31.2221L51.017 12.0443V19.3348C51.017 20.1268 51.6461 20.9187 52.5907 20.9187C53.5353 20.9187 54.1644 20.2855 54.1644 19.3348V8.24123C54.1644 7.44923 53.5353 6.65724 52.5907 6.65724H41.5693C40.7824 6.65724 39.9956 7.29046 39.9956 8.24123C39.9956 9.03322 40.6247 9.82522 41.5693 9.82522H48.8123L30.8615 28.0523L22.5161 19.6523C21.887 19.0191 20.9424 19.0191 20.3114 19.6523L3.14924 36.768V1.58399C3.14924 0.791995 2.51828 0 1.57369 0C0.629106 0 0 0.633222 0 1.58399V40.4141C0.157741 41.3649 0.786847 41.9981 1.57369 41.9981V42Z" fill="currentColor"/>
</g>
<defs>
<clipPath id="clip0_352_124">
<rect width="57" height="42" fill="white"/>
</clipPath>
</defs>
</svg>
