<svg width="63" height="64" viewBox="0 0 63 64" fill="none" xmlns="http://www.w3.org/2000/svg">
<path d="M31.3061 21.416C25.6422 21.416 20.9694 26.2221 20.9694 32.0476C20.9694 37.8732 25.6422 42.6793 31.3061 42.6793C36.9701 42.6793 41.6429 38.0188 41.6429 32.0476C41.6429 26.2221 36.9701 21.416 31.3061 21.416ZM31.3061 14.4253C40.7933 14.4253 48.4396 22.2898 48.4396 32.0476C48.4396 41.8055 40.7933 49.67 31.3061 49.67C21.819 49.67 14.1726 41.8055 14.1726 32.0476C14.1726 22.2898 21.819 14.4253 31.3061 14.4253ZM51.838 7.43465C53.6788 7.43465 55.2364 9.03668 55.2364 10.93C55.2364 12.8233 53.6788 14.4253 51.838 14.4253C49.9972 14.4253 48.4396 12.8233 48.4396 10.93C48.4396 9.03668 49.9972 7.43465 51.838 7.43465ZM17.571 0.29834C8.08386 0.29834 0.4375 8.16285 0.4375 17.9207V46.1746C0.4375 55.9324 8.08386 63.7969 17.571 63.7969H45.0413C54.5284 63.7969 62.1748 55.9324 62.1748 46.1746V17.9207C62.1748 8.16285 54.5284 0.29834 45.0413 0.29834H17.571Z" fill="currentColor"/>
</svg>
