<svg width="66" height="48" viewBox="0 0 66 48" fill="none" xmlns="http://www.w3.org/2000/svg">
<g clip-path="url(#clip0_158_343)">
<path d="M58.8996 3.71089C60.6016 3.71089 62.0042 5.10001 62.0042 6.80445V40.7996C62.0042 42.4955 60.6102 43.8931 58.8996 43.8931H6.95095C5.24898 43.8931 3.84635 42.504 3.84635 40.7996V6.80445C3.84635 5.10853 5.24042 3.71089 6.95095 3.71089H58.9082M58.9082 0.302002H6.95095C3.35029 0.302002 0.425293 3.2166 0.425293 6.80445V40.7996C0.425293 44.3874 3.35029 47.302 6.95095 47.302H58.9082C62.5088 47.302 65.4338 44.3874 65.4338 40.7996V6.80445C65.4338 3.2166 62.5088 0.302002 58.9082 0.302002Z" fill="currentColor"/>
<path d="M28.6488 36.581C27.708 36.581 26.9383 35.814 26.9383 34.8766C26.9383 31.1183 23.8679 28.0588 20.0962 28.0588C16.3245 28.0588 13.2541 31.1183 13.2541 34.8766C13.2541 35.814 12.4843 36.581 11.5435 36.581C10.6027 36.581 9.83301 35.814 9.83301 34.8766C9.83301 29.2349 14.4343 24.6499 20.0962 24.6499C25.758 24.6499 30.3593 29.2349 30.3593 34.8766C30.3593 35.814 29.5896 36.581 28.6488 36.581Z" fill="currentColor"/>
<path d="M20.0965 25.076C16.3248 25.076 13.2544 22.0165 13.2544 18.2582C13.2544 14.4999 16.3248 11.4404 20.0965 11.4404C23.8682 11.4404 26.9386 14.4999 26.9386 18.2582C26.9386 22.0165 23.8682 25.076 20.0965 25.076ZM20.0965 14.8493C18.2064 14.8493 16.6754 16.3748 16.6754 18.2582C16.6754 20.1416 18.2064 21.6671 20.0965 21.6671C21.9866 21.6671 23.5176 20.1416 23.5176 18.2582C23.5176 16.3748 21.9866 14.8493 20.0965 14.8493Z" fill="currentColor"/>
<path d="M52.5964 15.7016H38.9122C37.9714 15.7016 37.2017 14.9346 37.2017 13.9972C37.2017 13.0597 37.9714 12.2927 38.9122 12.2927H52.5964C53.5372 12.2927 54.3069 13.0597 54.3069 13.9972C54.3069 14.9346 53.5372 15.7016 52.5964 15.7016Z" fill="currentColor"/>
<path d="M52.5964 24.2238H38.9122C37.9714 24.2238 37.2017 23.4568 37.2017 22.5194C37.2017 21.5819 37.9714 20.8149 38.9122 20.8149H52.5964C53.5372 20.8149 54.3069 21.5819 54.3069 22.5194C54.3069 23.4568 53.5372 24.2238 52.5964 24.2238Z" fill="currentColor"/>
</g>
<defs>
<clipPath id="clip0_158_343">
<rect width="65" height="47" fill="white" transform="translate(0.425293 0.302002)"/>
</clipPath>
</defs>
</svg>
