<svg width="68" height="71" viewBox="0 0 68 71" fill="none" xmlns="http://www.w3.org/2000/svg">
<g clip-path="url(#clip0_354_233)">
<path d="M33.02 51.67H5.63C2.53 51.67 0 49.15 0 46.04V5.63C0 2.52 2.52 0 5.63 0H43.71C46.81 0 49.34 2.52 49.34 5.63V15.59C49.34 16.69 48.44 17.59 47.34 17.59C46.24 17.59 45.34 16.69 45.34 15.59V5.63C45.34 4.73 44.61 4 43.71 4H5.63C4.73 4 4 4.73 4 5.63V46.05C4 46.95 4.73 47.68 5.63 47.68H33.03C34.13 47.68 35.03 48.58 35.03 49.68C35.03 50.78 34.13 51.68 33.03 51.68L33.02 51.67Z" fill="currentColor"/>
<path d="M63.88 23.49H63.89V66.75C63.89 66.75 63.89 66.75 63.88 66.75H40.91H40.9V23.5C40.9 23.5 40.9 23.5 40.91 23.5H63.88M63.88 20.11H40.91C39.04 20.11 37.51 21.64 37.51 23.51V66.77C37.51 68.64 39.04 70.17 40.91 70.17H63.88C65.75 70.17 67.28 68.64 67.28 66.77V23.5C67.28 21.63 65.75 20.1 63.88 20.1V20.11Z" fill="currentColor"/>
<path d="M50.2299 52.05C49.7199 52.05 49.2099 51.85 48.8199 51.46L43.6499 46.29C42.8699 45.51 42.8699 44.24 43.6499 43.46C44.4299 42.68 45.6999 42.68 46.4799 43.46L50.2299 47.21L58.5899 38.85C59.3699 38.07 60.6399 38.07 61.4199 38.85C62.1999 39.63 62.1999 40.9 61.4199 41.68L51.6499 51.45C51.2599 51.84 50.7499 52.04 50.2399 52.04L50.2299 52.05Z" fill="currentColor"/>
<path d="M21.78 34.42C21.27 34.42 20.76 34.22 20.37 33.83L15.2 28.66C14.42 27.88 14.42 26.61 15.2 25.83C15.98 25.05 17.25 25.05 18.03 25.83L21.78 29.58L30.14 21.22C30.92 20.44 32.19 20.44 32.97 21.22C33.75 22 33.75 23.27 32.97 24.05L23.2 33.82C22.81 34.21 22.3 34.41 21.79 34.41L21.78 34.42Z" fill="currentColor"/>
<path d="M52.24 29.5C53.3888 29.5 54.32 28.5688 54.32 27.42C54.32 26.2713 53.3888 25.34 52.24 25.34C51.0913 25.34 50.16 26.2713 50.16 27.42C50.16 28.5688 51.0913 29.5 52.24 29.5Z" fill="currentColor"/>
<path d="M48.63 9.20001H0.880005V13.2H48.63V9.20001Z" fill="currentColor"/>
</g>
<defs>
<clipPath id="clip0_354_233">
<rect width="67.28" height="70.16" fill="white"/>
</clipPath>
</defs>
</svg>
