<svg
    width="20"
    height="20"
    viewBox="0 0 40 40"
    fill="none"
    xmlns="http://www.w3.org/2000/svg"
>
    <path
    d="M40.0002 13.3333C40.0002 16.8352 39.3104 20.3028 37.9703 23.5381C36.6302 26.7735 34.6659 29.7132 32.1897 32.1894C29.7134 34.6657 26.7737 36.6299 23.5384 37.97C20.303 39.3102 16.8354 39.9999 13.3335 39.9999L13.3335 26.6666C15.0845 26.6666 16.8183 26.3217 18.4359 25.6516C20.0536 24.9816 21.5235 23.9995 22.7616 22.7613C23.9997 21.5232 24.9818 20.0534 25.6519 18.4357C26.322 16.818 26.6668 15.0842 26.6668 13.3333L40.0002 13.3333Z"
    fill="#3EDBF0"
    />
    <rect
    width="13.3333"
    height="13.3333"
    transform="matrix(-1 0 0 1 13.3335 13.3333)"
    fill="white"
    />
    <rect
    width="13.3333"
    height="13.3333"
    transform="matrix(-1 0 0 1 26.6665 0)"
    fill="white"
    />
</svg>