<svg width="28" height="28" viewBox="0 0 28 28" fill="none" xmlns="http://www.w3.org/2000/svg">
<rect width="28" height="28" rx="4" fill="black" fill-opacity="0.08"/>
<path d="M12 12.6667C12 12.2985 12.2985 12 12.6667 12H14C14.3682 12 14.6667 12.2985 14.6667 12.6667V16H16C16.3682 16 16.6667 16.2985 16.6667 16.6667C16.6667 17.0349 16.3682 17.3333 16 17.3333H12C11.6318 17.3333 11.3333 17.0349 11.3333 16.6667C11.3333 16.2985 11.6318 16 12 16H13.3333V13.3333H12.6667C12.2985 13.3333 12 13.0349 12 12.6667Z" fill="#141414"/>
<path d="M13.6667 11.3333C14.219 11.3333 14.6667 10.8856 14.6667 10.3333C14.6667 9.78105 14.219 9.33333 13.6667 9.33333C13.1144 9.33333 12.6667 9.78105 12.6667 10.3333C12.6667 10.8856 13.1144 11.3333 13.6667 11.3333Z" fill="#141414"/>
<path fill-rule="evenodd" clip-rule="evenodd" d="M6 14C6 9.58172 9.58172 6 14 6C18.4183 6 22 9.58172 22 14C22 18.4183 18.4183 22 14 22C9.58172 22 6 18.4183 6 14ZM14 7.33333C10.3181 7.33333 7.33333 10.3181 7.33333 14C7.33333 17.6819 10.3181 20.6667 14 20.6667C17.6819 20.6667 20.6667 17.6819 20.6667 14C20.6667 10.3181 17.6819 7.33333 14 7.33333Z" fill="#141414"/>
</svg>
