<svg width="47" height="47" viewBox="0 0 47 47" fill="none" xmlns="http://www.w3.org/2000/svg">
<g clip-path="url(#clip0_354_138)">
<path d="M35.8953 29.7013L42.685 36.491L35.8953 43.2807L29.1055 36.491L35.8953 29.7013ZM35.8953 26.6836C35.0956 26.6836 34.3261 27.0004 33.7603 27.5663L26.9706 34.356C25.7937 35.5329 25.7937 37.4415 26.9706 38.626L33.7603 45.4157C34.3261 45.9815 35.0956 46.2984 35.8953 46.2984C36.695 46.2984 37.4645 45.9815 38.0303 45.4157L44.82 38.626C45.9969 37.4491 45.9969 35.5404 44.82 34.356L38.0303 27.5663C37.4645 27.0004 36.695 26.6836 35.8953 26.6836V26.6836Z" fill="currentColor"/>
<path d="M20.7615 25.9971H9.71684C8.88698 25.9971 8.20801 25.3181 8.20801 24.4882C8.20801 23.6584 8.88698 22.9794 9.71684 22.9794H20.769C21.448 22.9794 21.9987 22.4287 21.9987 21.7497V7.42338C21.9987 6.59352 22.6777 5.91455 23.5075 5.91455C24.3374 5.91455 25.0164 6.59352 25.0164 7.42338V21.7572C25.0164 24.0959 23.1152 26.0046 20.769 26.0046L20.7615 25.9971Z" fill="currentColor"/>
<path d="M23.5 47C10.5392 47 0 36.4533 0 23.5C0 10.5467 10.5392 0 23.5 0C36.4608 0 47 10.5392 47 23.5C47 25.0918 46.8416 26.6912 46.5247 28.2377C46.3587 29.0525 45.5591 29.5806 44.7443 29.4146C43.9295 29.2486 43.4014 28.449 43.5674 27.6342C43.8465 26.2838 43.9823 24.8957 43.9823 23.5C43.9823 12.2064 34.7936 3.01766 23.5 3.01766C12.2064 3.01766 3.01766 12.2064 3.01766 23.5C3.01766 34.7936 12.2064 43.9823 23.5 43.9823C24.6241 43.9823 25.7557 43.8918 26.8571 43.7108C27.687 43.575 28.4565 44.1332 28.5923 44.9555C28.7281 45.7779 28.1698 46.5549 27.3475 46.6907C26.0801 46.9019 24.79 47.0075 23.5 47.0075V47Z" fill="currentColor"/>
</g>
<defs>
<clipPath id="clip0_354_138">
<rect width="47" height="47" fill="white"/>
</clipPath>
</defs>
</svg>
