<svg width="63" height="38" viewBox="0 0 63 38" fill="none" xmlns="http://www.w3.org/2000/svg">
<g clip-path="url(#clip0_351_85)">
<path fill-rule="evenodd" clip-rule="evenodd" d="M43.9785 23.8347C43.9785 24.32 43.7503 24.787 43.3576 25.08L38.536 28.6786C38.2529 28.8892 37.9333 28.9899 37.6137 28.9899C37.1389 28.9899 36.6731 28.7701 36.3718 28.3672C35.8604 27.6805 36.0065 26.7099 36.6823 26.1971L37.769 25.3913H20.5739C19.7155 25.3913 19.0306 24.6954 19.0306 23.8439C19.0306 22.9923 19.7155 22.2964 20.5739 22.2964H37.7781L36.6914 21.4906C36.0065 20.9778 35.8695 20.0072 36.3809 19.3205C36.8923 18.6337 37.8603 18.4872 38.5452 19L43.3667 22.5986C43.7594 22.8916 43.9785 23.3494 43.9785 23.8439V23.8347ZM19.0306 14.1653C19.0306 14.6598 19.2589 15.1176 19.6515 15.4106L24.4731 19.0092C24.7562 19.2198 25.0758 19.3205 25.3954 19.3205C25.8703 19.3205 26.336 19.1007 26.6373 18.6978C27.1487 18.0111 27.0026 17.0405 26.3269 16.5277L25.2402 15.7219H42.4444C43.3028 15.7219 43.9877 15.026 43.9877 14.1745C43.9877 13.3229 43.3028 12.627 42.4444 12.627H25.231L26.3177 11.8212C27.0026 11.3084 27.1396 10.3378 26.6282 9.65108C26.1168 8.96434 25.1489 8.82699 24.464 9.3306L19.6424 12.9292C19.2497 13.2222 19.0215 13.68 19.0215 14.1745L19.0306 14.1653ZM57.7584 34.9051H51.7223C52.3889 30.693 55.7129 27.3508 59.9226 26.6916V32.7441C59.9226 33.9436 58.9455 34.9142 57.7584 34.9142V34.9051ZM3.08653 32.7349V26.6824C7.29628 27.3508 10.6202 30.6839 11.2869 34.8959H5.25076C4.06363 34.8959 3.08653 33.9253 3.08653 32.7258V32.7349ZM5.25076 3.09494H11.2869C10.6202 7.30699 7.29628 10.6492 3.08653 11.3084V5.26506C3.08653 4.06554 4.06363 3.09494 5.25076 3.09494ZM59.9135 14.44C53.9961 13.7349 49.3024 9.01928 48.5992 3.09494H14.4008C13.6976 9.01928 9.00391 13.7349 3.08653 14.44V23.56C9.00391 24.2651 13.6976 28.9807 14.4008 34.9051H48.5992C49.3024 28.9807 53.9961 24.2651 59.9135 23.56V14.44ZM59.9135 5.26506V11.3176C55.7037 10.6492 52.3798 7.31614 51.7131 3.1041H57.7492C58.9364 3.1041 59.9135 4.0747 59.9135 5.27422V5.26506ZM57.7492 0H5.25076C2.35599 0 0 2.36241 0 5.26506V32.7349C0 35.6376 2.35599 38 5.25076 38H57.7584C60.644 38 63.0091 35.6376 63.0091 32.7349V5.26506C63 2.36241 60.644 0 57.7584 0H57.7492Z" fill="currentColor"/>
</g>
<defs>
<clipPath id="clip0_351_85">
<rect width="63" height="38" fill="white"/>
</clipPath>
</defs>
</svg>
