<svg width="146" height="134" viewBox="0 0 146 134" fill="none" xmlns="http://www.w3.org/2000/svg">
<g clip-path="url(#clip0_354_206)">
<path d="M122.512 120.594H97.016C95.4225 120.594 94.0981 119.272 94.0981 117.681V108.055H84.7441C83.1507 108.055 81.8469 106.754 81.8469 105.163C81.8469 103.573 83.1507 102.271 84.7441 102.271H96.9746C98.5681 102.271 99.8926 103.593 99.8926 105.184V114.81H119.635V105.184C119.635 103.593 120.96 102.271 122.553 102.271H140.206V5.78388H28.3722V40.6317C28.3722 42.2223 27.0685 43.5237 25.475 43.5237C23.8815 43.5237 22.5777 42.2223 22.5777 40.6317V2.91259C22.5777 1.32203 23.9022 0 25.4957 0H143.061C144.655 0 145.979 1.32203 145.979 2.91259V105.143C145.979 106.733 144.655 108.055 143.061 108.055H125.409V117.681C125.409 119.272 124.084 120.594 122.491 120.594H122.512Z" fill="currentColor"/>
<path d="M36.7949 54.4717C36.7949 54.4717 48.4459 65.5437 67.7539 65.5437V79.5076C67.7539 94.5664 66.2639 118.652 36.7949 128.237H36.7535C7.28448 118.652 5.79447 94.5664 5.79447 79.487V65.523C25.1025 65.523 36.7535 54.4511 36.7535 54.4511H36.7949M36.7949 48.6672H36.7535C35.2635 48.6672 33.8356 49.2456 32.7595 50.2577C32.6767 50.3404 22.3708 59.7392 5.79447 59.7392C2.58682 59.7392 0 62.3213 0 65.523V79.487C0 92.3148 0 122.35 34.9531 133.711C35.5325 133.897 36.1327 134 36.7535 134C37.3743 134 38.0159 133.897 38.5953 133.711C73.5484 122.35 73.5484 92.3148 73.5484 79.487V65.523C73.5484 62.3213 70.9616 59.7392 67.7539 59.7392C51.1776 59.7392 40.8717 50.3404 40.7682 50.2371C39.6921 49.2456 38.2642 48.6672 36.7949 48.6672Z" fill="currentColor"/>
<path d="M33.401 105.7C32.6353 105.7 31.8903 105.39 31.3522 104.853L19.7426 93.265C18.6044 92.1289 18.6044 90.3111 19.7426 89.175C20.8808 88.0388 22.7019 88.0388 23.8401 89.175L33.401 98.7184L53.2884 78.8673C54.4266 77.7312 56.2478 77.7312 57.386 78.8673C58.5242 80.0034 58.5242 81.8212 57.386 82.9573L35.4497 104.853C34.9117 105.39 34.1667 105.7 33.401 105.7Z" fill="currentColor"/>
<path d="M122.139 86.7788H86.9171C85.3236 86.7788 84.0198 85.4774 84.0198 83.8868C84.0198 82.2963 85.3236 80.9949 86.9171 80.9949H119.263V25.2425H50.3291V39.1858C50.3291 40.7763 49.0254 42.0777 47.4319 42.0777C45.8384 42.0777 44.5347 40.7763 44.5347 39.1858V22.3712C44.5347 20.7806 45.8591 19.4586 47.4526 19.4586H122.139C123.733 19.4586 125.057 20.7806 125.057 22.3712V83.8455C125.057 85.4361 123.733 86.7581 122.139 86.7581V86.7788Z" fill="currentColor"/>
<path d="M96.1675 45.6926C99.5201 45.6926 102.231 48.3986 102.231 51.745C102.231 55.0914 99.5201 57.7974 96.1675 57.7974C92.815 57.7974 90.104 55.0914 90.104 51.745C90.104 48.3986 92.815 45.6926 96.1675 45.6926ZM96.1675 39.9087C89.6281 39.9087 84.3096 45.2175 84.3096 51.745C84.3096 58.2725 89.6281 63.5813 96.1675 63.5813C102.707 63.5813 108.026 58.2725 108.026 51.745C108.026 45.2175 102.707 39.9087 96.1675 39.9087Z" fill="currentColor"/>
</g>
<defs>
<clipPath id="clip0_354_206">
<rect width="146" height="134" fill="white"/>
</clipPath>
</defs>
</svg>
