<svg width="56" height="65" viewBox="0 0 56 65" fill="none" xmlns="http://www.w3.org/2000/svg">
<g clip-path="url(#clip0_354_212)">
<path d="M28.0143 3.79895C28.0143 3.79895 37.1075 12.4131 52.1833 12.4131V23.2781C52.1833 35.0073 51.0193 53.7551 28.0143 61.201H27.9857C4.98075 53.7551 3.81666 35.0073 3.81666 23.2781V12.4131C18.8925 12.4131 27.9857 3.79895 27.9857 3.79895H28.0143ZM28.0143 0H27.9857C27.0029 0 26.0678 0.370397 25.3522 1.04471C25.2854 1.11119 17.07 8.61411 3.81666 8.61411C1.70796 8.61411 0 10.3141 0 12.4131V23.2781C0 33.1078 0 56.1295 26.8025 64.8195C27.1842 64.943 27.5849 65.0095 27.9857 65.0095C28.3864 65.0095 28.8158 64.943 29.1975 64.8195C56 56.1295 56 33.1078 56 23.2781V12.4131C56 10.3141 54.292 8.61411 52.1833 8.61411C38.9395 8.61411 30.7146 1.11119 30.6383 1.03521C29.9322 0.379895 28.9876 0 28.0143 0V0Z" fill="currentColor"/>
<path d="M36.2488 29.5273H36.2583V42.9376C36.2583 42.9376 36.2583 42.9471 36.2488 42.9471H19.7417C19.7417 42.9471 19.7322 42.9471 19.7322 42.9376V29.5273C19.7322 29.5273 19.7322 29.5273 19.7417 29.5273H36.2488ZM36.2488 25.7284H19.7417C17.633 25.7284 15.9155 27.4379 15.9155 29.5368V42.9471C15.9155 45.046 17.633 46.7556 19.7417 46.7556H36.2488C38.3575 46.7556 40.075 45.046 40.075 42.9471V29.5368C40.075 27.4379 38.3575 25.7284 36.2488 25.7284Z" fill="currentColor"/>
<path d="M36.1056 27.4284H32.289V23.7719C32.289 21.4166 30.3616 19.4981 27.9952 19.4981C25.6289 19.4981 23.7015 21.4166 23.7015 23.7719V27.4284H19.8848V23.7719C19.8848 19.3272 23.5202 15.6992 27.9952 15.6992C32.4703 15.6992 36.1056 19.3177 36.1056 23.7719V27.4284Z" fill="currentColor"/>
<path d="M27.9952 39.9554C26.9457 39.9554 26.0869 39.1007 26.0869 38.056V34.276C26.0869 33.2313 26.9457 32.3765 27.9952 32.3765C29.0448 32.3765 29.9036 33.2313 29.9036 34.276V38.056C29.9036 39.1007 29.0448 39.9554 27.9952 39.9554Z" fill="currentColor"/>
</g>
<defs>
<clipPath id="clip0_354_212">
<rect width="56" height="65" fill="white"/>
</clipPath>
</defs>
</svg>
