<svg width="66" height="48" viewBox="0 0 66 48" fill="none" xmlns="http://www.w3.org/2000/svg">
<g clip-path="url(#clip0_2018_94)">
<path d="M58.9001 3.71064C60.6021 3.71064 62.0047 5.09976 62.0047 6.80421V40.7993C62.0047 42.4952 60.6106 43.8929 58.9001 43.8929H6.95144C5.24947 43.8929 3.84683 42.5037 3.84683 40.7993V6.80421C3.84683 5.10829 5.24091 3.71064 6.95144 3.71064H58.9087M58.9087 0.301758H6.95144C3.35078 0.301758 0.425781 3.21635 0.425781 6.80421V40.7993C0.425781 44.3872 3.35078 47.3018 6.95144 47.3018H58.9087C62.5093 47.3018 65.4343 44.3872 65.4343 40.7993V6.80421C65.4343 3.21635 62.5093 0.301758 58.9087 0.301758Z" fill="#08E0A3"/>
<path d="M28.6498 36.5805C27.709 36.5805 26.9392 35.8135 26.9392 34.8761C26.9392 31.1178 23.8689 28.0583 20.0971 28.0583C16.3254 28.0583 13.255 31.1178 13.255 34.8761C13.255 35.8135 12.4853 36.5805 11.5445 36.5805C10.6037 36.5805 9.83398 35.8135 9.83398 34.8761C9.83398 29.2344 14.4353 24.6494 20.0971 24.6494C25.759 24.6494 30.3603 29.2344 30.3603 34.8761C30.3603 35.8135 29.5906 36.5805 28.6498 36.5805Z" fill="#08E0A3"/>
<path d="M20.096 25.076C16.3243 25.076 13.2539 22.0165 13.2539 18.2582C13.2539 14.4999 16.3243 11.4404 20.096 11.4404C23.8677 11.4404 26.9381 14.4999 26.9381 18.2582C26.9381 22.0165 23.8677 25.076 20.096 25.076ZM20.096 14.8493C18.2059 14.8493 16.675 16.3748 16.675 18.2582C16.675 20.1416 18.2059 21.6671 20.096 21.6671C21.9861 21.6671 23.5171 20.1416 23.5171 18.2582C23.5171 16.3748 21.9861 14.8493 20.096 14.8493Z" fill="#08E0A3"/>
<path d="M52.5979 15.7019H38.9137C37.9729 15.7019 37.2031 14.9349 37.2031 13.9974C37.2031 13.06 37.9729 12.293 38.9137 12.293H52.5979C53.5387 12.293 54.3084 13.06 54.3084 13.9974C54.3084 14.9349 53.5387 15.7019 52.5979 15.7019Z" fill="#08E0A3"/>
<path d="M52.5979 24.2233H38.9137C37.9729 24.2233 37.2031 23.4563 37.2031 22.5189C37.2031 21.5815 37.9729 20.8145 38.9137 20.8145H52.5979C53.5387 20.8145 54.3084 21.5815 54.3084 22.5189C54.3084 23.4563 53.5387 24.2233 52.5979 24.2233Z" fill="#08E0A3"/>
</g>
<defs>
<clipPath id="clip0_2018_94">
<rect width="65" height="47" fill="white" transform="translate(0.425781 0.301758)"/>
</clipPath>
</defs>
</svg>
