<svg width="67" height="69" viewBox="0 0 67 69" fill="none" xmlns="http://www.w3.org/2000/svg">
<path d="M48.579 21.5855C48.0484 27.3155 45.7935 41.0946 44.5997 47.3702C44.0691 50.0988 43.1406 50.9173 42.2121 51.0537C40.2225 51.1902 38.6308 49.6895 36.6411 48.3252C33.5904 46.2788 31.866 44.9145 28.8152 43.0046C25.3665 40.6853 27.6214 39.321 29.6111 37.2746C30.1416 36.7289 39.0287 28.4069 39.294 27.5883C39.294 27.4519 39.294 27.179 39.1614 26.9062C38.8961 26.7698 38.6308 26.7698 38.4981 26.9062C38.2329 26.9062 33.3251 30.3169 23.7748 36.8653C22.3157 37.8203 21.1219 38.366 20.0608 38.366C18.867 38.366 16.4795 37.6839 14.6225 37.0018C12.5002 36.3196 10.6432 35.9104 10.9085 34.6825C11.0411 34.0004 11.837 33.3182 13.4287 32.6361C23.6422 28.134 30.4069 25.1326 33.723 23.6319C43.4059 19.5391 45.3956 18.7206 46.722 18.7206C46.9873 18.7206 47.6505 18.7206 48.0484 19.1298C48.4463 19.4027 48.4463 19.812 48.579 20.0848C48.579 20.3577 48.579 21.0398 48.579 21.5855ZM33.5904 0.166504C15.2857 0.166504 0.429688 15.4463 0.429688 34.2732C0.429688 53.1002 15.2857 68.38 33.5904 68.38C51.8951 68.38 66.751 53.1002 66.751 34.2732C66.751 15.4463 51.8951 0.166504 33.5904 0.166504Z" fill="currentColor"/>
</svg>
