<svg width="45" height="46" viewBox="0 0 45 46" fill="none" xmlns="http://www.w3.org/2000/svg">
<g clip-path="url(#clip0_354_156)">
<path d="M21.2118 22.6612H16.8915C16.1649 22.6612 15.5703 22.0633 15.5703 21.3325C15.5703 20.6017 16.1649 20.0038 16.8915 20.0038H19.8972V2.65742H2.6424V20.0038H11.7851C12.5117 20.0038 13.1063 20.6017 13.1063 21.3325C13.1063 22.0633 12.5117 22.6612 11.7851 22.6612H1.3278C0.601145 22.6612 0 22.0566 0 21.3258V1.33536C0 0.604564 0.601145 0 1.3278 0H21.2118C21.9385 0 22.5396 0.604564 22.5396 1.33536V21.3325C22.5396 22.0633 21.9385 22.6678 21.2118 22.6678V22.6612Z" fill="currentColor"/>
<path d="M43.6718 46H23.7878C23.0611 46 22.46 45.3954 22.46 44.6646V24.6675C22.46 23.9367 23.0611 23.3322 23.7878 23.3322H27.5069C28.2336 23.3322 28.8281 23.9301 28.8281 24.6609C28.8281 25.3917 28.2336 25.9896 27.5069 25.9896H25.1024V43.3359H42.3572V25.9896H33.2145C32.4879 25.9896 31.8933 25.3917 31.8933 24.6609C31.8933 23.9301 32.4879 23.3322 33.2145 23.3322H43.6718C44.3985 23.3322 44.9996 23.9367 44.9996 24.6675V44.6646C44.9996 45.3954 44.3985 46 43.6718 46Z" fill="currentColor"/>
<path d="M32.4749 34.2874H28.1546C27.428 34.2874 26.8334 33.6895 26.8334 32.9587C26.8334 32.2279 27.428 31.63 28.1546 31.63H31.1603V14.2836H21.6015C20.8748 14.2836 20.2803 13.6857 20.2803 12.9549C20.2803 12.2241 20.8748 11.6262 21.6015 11.6262H32.4749C33.2016 11.6262 33.8027 12.2308 33.8027 12.9616V32.9587C33.8027 33.6895 33.2016 34.294 32.4749 34.294V34.2874Z" fill="currentColor"/>
<path d="M23.0546 34.2874H12.5973C11.8707 34.2874 11.2695 33.6828 11.2695 32.952V12.9616C11.2695 12.2308 11.8707 11.6262 12.5973 11.6262H16.2438C16.9705 11.6262 17.565 12.2241 17.565 12.9549C17.565 13.6857 16.9705 14.2836 16.2438 14.2836H13.9119V31.6366H23.0546C23.7813 31.6366 24.3758 32.2345 24.3758 32.9653C24.3758 33.6961 23.7813 34.294 23.0546 34.294V34.2874Z" fill="currentColor"/>
</g>
<defs>
<clipPath id="clip0_354_156">
<rect width="45" height="46" fill="white"/>
</clipPath>
</defs>
</svg>
