<svg width="42" height="49" viewBox="0 0 42 49" fill="none" xmlns="http://www.w3.org/2000/svg">
<g clip-path="url(#clip0_354_147)">
<path d="M21.0107 2.86382C21.0107 2.86382 27.8306 9.35754 39.1375 9.35754V17.5481C39.1375 26.3901 38.2644 40.5231 21.0107 46.1362H20.9893C3.73556 40.5231 2.8625 26.3901 2.8625 17.5481V9.35754C14.1694 9.35754 20.9893 2.86382 20.9893 2.86382H21.0107ZM21.0107 0H20.9893C20.2522 0 19.5509 0.279223 19.0141 0.787551C18.964 0.837668 12.8025 6.49372 2.8625 6.49372C1.28097 6.49372 0 7.77528 0 9.35754V17.5481C0 24.9582 0 42.313 20.1019 48.864C20.3881 48.957 20.6887 49.0072 20.9893 49.0072C21.2898 49.0072 21.6119 48.957 21.8981 48.864C42 42.313 42 24.9582 42 17.5481V9.35754C42 7.77528 40.719 6.49372 39.1375 6.49372C29.2046 6.49372 23.036 0.837668 22.9787 0.780392C22.4491 0.286382 21.7407 0 21.0107 0V0Z" fill="currentColor"/>
<path d="M27.1865 22.2591H27.1936V32.3684C27.1936 32.3684 27.1936 32.3755 27.1865 32.3755H14.8062C14.8062 32.3755 14.799 32.3755 14.799 32.3684V22.2591C14.799 22.2591 14.799 22.2591 14.8062 22.2591H27.1865ZM27.1865 19.3953H14.8062C13.2246 19.3953 11.9365 20.684 11.9365 22.2662V32.3755C11.9365 33.9578 13.2246 35.2465 14.8062 35.2465H27.1865C28.768 35.2465 30.0561 33.9578 30.0561 32.3755V22.2662C30.0561 20.684 28.768 19.3953 27.1865 19.3953Z" fill="currentColor"/>
<path d="M27.0797 20.6768H24.2172V17.9203C24.2172 16.1448 22.7716 14.6985 20.9969 14.6985C19.2221 14.6985 17.7766 16.1448 17.7766 17.9203V20.6768H14.9141V17.9203C14.9141 14.5697 17.6406 11.8347 20.9969 11.8347C24.3531 11.8347 27.0797 14.5625 27.0797 17.9203V20.6768Z" fill="currentColor"/>
<path d="M20.9967 30.1203C20.2095 30.1203 19.5654 29.4759 19.5654 28.6884V25.8389C19.5654 25.0513 20.2095 24.407 20.9967 24.407C21.7839 24.407 22.4279 25.0513 22.4279 25.8389V28.6884C22.4279 29.4759 21.7839 30.1203 20.9967 30.1203Z" fill="currentColor"/>
</g>
<defs>
<clipPath id="clip0_354_147">
<rect width="42" height="49" fill="white"/>
</clipPath>
</defs>
</svg>
