<svg width="65" height="54" viewBox="0 0 65 54" fill="none" xmlns="http://www.w3.org/2000/svg">
<path d="M64.5952 0.91748C62.0731 2.4434 57.0289 4.57969 54.0617 5.19006C53.9133 5.19006 53.9133 5.19006 53.765 5.19006C51.0945 2.59599 47.5339 0.91748 43.6765 0.91748C35.6651 0.91748 29.2857 7.63154 29.2857 15.7189C29.2857 16.1767 29.2857 16.9397 29.2857 17.3974C18.6038 17.3974 10.2956 11.5989 4.50961 4.27451C3.91617 5.95302 3.61946 8.54709 3.61946 10.9886C3.61946 15.5663 7.18009 20.1441 12.6694 22.8908C11.6309 23.1959 10.5924 23.3485 9.40548 23.3485C7.4768 23.3485 5.54813 22.8908 3.76782 21.3648V21.5174C3.76782 27.9263 10.444 32.3515 16.3784 33.5722C15.1915 34.3352 12.8177 34.3352 11.6309 34.3352C10.7407 34.3352 7.77352 33.8774 7.03172 33.7248C8.66368 39.0655 14.5981 41.9648 20.2357 42.1174C15.7849 45.627 12.6694 47.0003 3.61946 47.0003H0.503906C6.28993 50.8151 13.5595 53.5618 20.8292 53.5618C44.715 53.5618 58.2158 34.9455 58.2158 17.2448C58.2158 16.9397 58.2158 16.3293 58.2158 15.7189V15.5663C58.2158 15.4137 58.2158 15.4137 58.2158 15.2611C58.2158 14.8034 58.2158 14.3456 58.2158 14.193C60.7379 12.3619 62.9633 9.92042 64.7436 7.32635C62.3698 8.3945 59.9961 9.15746 57.3256 9.46264C59.8477 7.93672 63.7051 3.96932 64.5952 0.91748Z" fill="currentColor"/>
</svg>
