<svg width="65" height="47" viewBox="0 0 65 47" fill="none" xmlns="http://www.w3.org/2000/svg">
<g clip-path="url(#clip0_2018_111)">
<path d="M23.1257 37.1999H12.1441C11.2033 37.1999 10.4336 36.4329 10.4336 35.4955C10.4336 34.558 11.2033 33.791 12.1441 33.791H23.1171C24.0579 33.791 24.8277 34.558 24.8277 35.4955C24.8277 36.4329 24.0579 37.1999 23.1171 37.1999H23.1257Z" fill="#08DFA5"/>
<path d="M58.4743 3.40888C60.1763 3.40888 61.579 4.79801 61.579 6.50245V40.4976C61.579 42.1935 60.1849 43.5911 58.4743 43.5911H6.52566C4.82368 43.5911 3.42105 42.202 3.42105 40.4976V6.50245C3.42105 4.80653 4.81513 3.40888 6.52566 3.40888H58.4829M58.4829 0H6.52566C2.925 0 0 2.9146 0 6.50245V40.4976C0 44.0854 2.925 47 6.52566 47H58.4829C62.0836 47 65.0086 44.0854 65.0086 40.4976V6.50245C65.0086 2.9146 62.0836 0 58.4829 0Z" fill="#08DFA5"/>
<path d="M21.6126 13.6185C21.6126 13.6185 21.6211 13.6185 21.6211 13.627V19.2943C21.6211 19.2943 21.6211 19.3028 21.6126 19.3028H13.402C13.402 19.3028 13.3935 19.3028 13.3935 19.2943V13.627C13.3935 13.627 13.3935 13.6185 13.402 13.6185H21.6126ZM21.6126 10.7295H13.402C11.8027 10.7295 10.4941 12.0334 10.4941 13.627V19.2943C10.4941 20.888 11.8027 22.1919 13.402 22.1919H21.6126C23.2119 22.1919 24.5205 20.888 24.5205 19.2943V13.627C24.5205 12.0334 23.2119 10.7295 21.6126 10.7295Z" fill="#08DFA5"/>
<path d="M52.7103 40.7703C51.6412 40.7703 50.6064 40.4635 49.7083 39.9095C48.8103 40.4635 47.7754 40.7703 46.7064 40.7703C43.5333 40.7703 40.959 38.1965 40.959 35.0433C40.959 31.8901 43.5419 29.3164 46.7064 29.3164C47.7754 29.3164 48.8103 29.6232 49.7083 30.1771C50.6064 29.6232 51.6498 29.3164 52.7103 29.3164C55.8833 29.3164 58.4577 31.8901 58.4577 35.0433C58.4577 38.1965 55.8748 40.7703 52.7103 40.7703ZM49.7083 36.0063C50.1958 36.0063 50.6577 36.2109 50.9827 36.5773C51.436 37.0887 52.0517 37.3614 52.7103 37.3614C53.9932 37.3614 55.0366 36.3217 55.0366 35.0433C55.0366 33.765 53.9932 32.7253 52.7103 32.7253C52.0517 32.7253 51.436 33.0065 50.9827 33.5093C50.3327 34.2337 49.0754 34.2337 48.434 33.5093C47.9807 32.998 47.3649 32.7253 46.7064 32.7253C45.4235 32.7253 44.38 33.765 44.38 35.0433C44.38 36.3217 45.4235 37.3614 46.7064 37.3614C47.3649 37.3614 47.9807 37.0801 48.434 36.5773C48.759 36.2109 49.2208 36.0063 49.7083 36.0063Z" fill="#08DFA5"/>
</g>
<defs>
<clipPath id="clip0_2018_111">
<rect width="65" height="47" fill="white"/>
</clipPath>
</defs>
</svg>
