<svg width="151" height="170" viewBox="0 0 151 170" fill="none" xmlns="http://www.w3.org/2000/svg">
<g clip-path="url(#clip0_348_21)">
<path d="M42.3675 114.925C52.6355 123.635 58.673 133.414 60.5225 144.259C59.2044 144.259 58.1628 145.583 58.1628 146.907V159.054C58.1628 160.634 59.2257 161.702 60.7989 161.702C63.6901 161.702 66.0498 163.815 67.1127 167.253C67.3678 168.32 68.4308 169.11 69.7488 169.11H82.6317C83.9497 169.11 84.9914 168.32 85.2678 167.253C86.0544 163.815 88.4353 161.702 91.3265 161.702C92.8997 161.702 93.9626 160.634 93.9626 159.054V146.907C93.9626 145.583 92.8997 144.537 91.6029 144.259C93.4524 133.691 99.4899 123.657 109.758 114.925C122.131 104.101 127.913 88.2379 126.34 71.8627C123.704 47.0331 102.658 26.687 76.1052 26.687C48.2136 26.687 25.5942 49.403 25.5942 77.4136C25.3391 91.4189 31.653 105.147 42.4312 114.925H42.3675ZM88.3928 156.663C84.715 157.453 81.8238 160.101 80.5058 163.794H71.3007C69.7276 160.101 66.8364 157.453 63.4137 156.663V149.533H88.4141V156.663H88.3928ZM75.7651 31.7041C99.4474 31.7041 118.389 49.9367 120.749 72.1189C122.322 86.9142 116.795 100.92 106.016 110.698C94.4516 120.476 87.8614 131.834 86.0331 143.982H78.4012V108.306L96.0247 99.5958C96.8113 99.0621 97.5979 98.2722 97.5979 97.226V64.732C101.276 63.6645 104.167 59.971 104.167 56.0213C104.167 51.0042 99.9576 46.777 94.9618 46.777C89.966 46.777 85.7567 51.0042 85.7567 56.0213C85.7567 60.2485 88.6479 63.6858 92.3257 64.732V95.6462L78.3799 102.521V86.6793C82.0577 85.6119 84.9489 81.9184 84.9489 77.9687C84.9489 72.9516 80.7396 68.7243 75.7438 68.7243C70.748 68.7243 66.5387 72.9516 66.5387 77.9687C66.5387 82.1959 69.4299 85.6332 73.1077 86.6793V117.594L56.5258 101.475V75.0652C60.2036 73.9977 63.0948 70.3042 63.0948 66.3545C63.0948 61.3374 58.8856 57.1102 53.8897 57.1102C48.8939 57.1102 44.6847 61.3374 44.6847 66.3545C44.6847 70.5817 47.5759 74.019 51.2536 75.0652V102.542C51.2536 103.332 51.5088 103.866 52.0402 104.4L73.0865 124.746V144.302H65.7309C63.8814 132.154 57.3124 121.052 45.7476 111.274C36.0111 102.82 30.7601 90.3942 30.7601 77.4563C30.505 52.093 50.7434 31.7468 75.7438 31.7468L75.7651 31.7041ZM75.7651 81.6408C73.6605 81.6408 71.8109 79.7834 71.8109 77.6698C71.8109 75.5562 73.6605 73.6988 75.7651 73.6988C77.8697 73.6988 79.7192 75.5562 79.7192 77.6698C79.7192 79.7834 77.8697 81.6408 75.7651 81.6408ZM94.9618 59.7148C92.8572 59.7148 91.0077 57.8574 91.0077 55.7438C91.0077 53.6302 92.8572 51.7728 94.9618 51.7728C97.0664 51.7728 98.9159 53.6302 98.9159 55.7438C98.9159 57.8574 97.0664 59.7148 94.9618 59.7148ZM53.9323 69.7491C51.8276 69.7491 49.9781 67.8917 49.9781 65.7781C49.9781 63.6645 51.8276 61.8071 53.9323 61.8071C56.0369 61.8071 57.8864 63.6645 57.8864 65.7781C57.8864 67.8917 56.0369 69.7491 53.9323 69.7491Z" fill="currentColor"/>
<path d="M128.381 109.118L137.331 114.391C138.649 115.181 140.222 114.647 141.008 113.324C141.795 112 141.263 110.42 139.945 109.63L130.995 104.357C129.677 103.567 128.104 104.101 127.318 105.424C126.786 106.748 127.063 108.328 128.381 109.118Z" fill="currentColor"/>
<path d="M151 75.5562C151 73.9763 149.937 72.9089 148.364 72.9089H138.096C136.523 72.9089 135.46 73.9763 135.46 75.5562C135.46 77.1361 136.523 78.2036 138.096 78.2036H148.364C149.682 78.2036 151 76.8799 151 75.5562Z" fill="currentColor"/>
<path d="M131.017 46.4994L139.967 41.2261C141.285 40.4361 141.54 38.8563 141.03 37.5326C140.243 36.2089 138.67 35.9527 137.352 36.4651L128.402 41.7385C127.084 42.5284 126.829 44.1083 127.339 45.4319C128.126 46.7556 129.699 47.2893 131.017 46.4994Z" fill="currentColor"/>
<path d="M109.184 22.716L114.435 13.7278C115.221 12.4041 114.69 10.8242 113.372 10.0343C112.054 9.24437 110.481 9.77811 109.694 11.1018L104.443 20.09C103.657 21.4136 104.188 22.9935 105.506 23.7834C106.824 24.3172 108.397 24.0396 109.184 22.716Z" fill="currentColor"/>
<path d="M78.4011 12.9379V2.64735C78.4011 1.06748 77.3382 0 75.765 0C74.1918 0 73.1289 1.06748 73.1289 2.64735V12.9379C73.1289 14.5177 74.1918 15.5852 75.765 15.5852C77.3382 15.5852 78.4011 14.5391 78.4011 12.9379Z" fill="currentColor"/>
<path d="M46.0452 23.7834C47.3633 22.9935 47.6184 21.4136 47.1081 20.09L41.8572 11.1018C41.0706 9.77812 39.4975 9.52192 38.1794 10.0343C36.8614 10.8242 36.6063 12.4041 37.1165 13.7278L42.3674 22.716C43.154 24.0396 44.7272 24.2958 46.0452 23.7834Z" fill="currentColor"/>
<path d="M23.1494 41.9946L14.1995 36.7213C12.8814 35.9314 11.3083 36.4651 10.5217 37.7888C9.7351 39.1124 10.2666 40.6923 11.5846 41.4823L20.5346 46.7556C21.8526 47.5455 23.4258 47.0118 24.2124 45.6881C24.7438 44.3644 24.4675 42.7846 23.1494 41.9946Z" fill="currentColor"/>
<path d="M16.049 75.5562C16.049 73.9763 14.986 72.9089 13.4129 72.9089H3.16612C1.59297 72.9089 0.530029 73.9763 0.530029 75.5562C0.530029 77.1361 1.59297 78.2036 3.16612 78.2036H13.4129C14.986 78.2036 16.049 76.8799 16.049 75.5562Z" fill="currentColor"/>
<path d="M14.1994 114.135L23.1494 108.862C24.4674 108.072 24.7225 106.492 24.2123 105.168C23.4258 103.844 21.8526 103.588 20.5346 104.101L11.5846 109.374C10.2665 110.164 10.0114 111.744 10.5216 113.067C11.3082 114.647 12.8814 114.925 14.1994 114.135Z" fill="currentColor"/>
</g>
<defs>
<clipPath id="clip0_348_21">
<rect width="150.47" height="169.067" fill="white" transform="translate(0.530029)"/>
</clipPath>
</defs>
</svg>
