<svg width="54" height="54" viewBox="0 0 54 54" fill="none" xmlns="http://www.w3.org/2000/svg">
<g clip-path="url(#clip0_354_152)">
<path d="M26.8942 22.9214L30.9686 26.9958L26.8942 31.0701L22.8199 26.9958L26.8942 22.9214ZM26.8942 19.5332C26.0302 19.5332 25.1578 19.8636 24.4971 20.5243L20.4227 24.5986C19.7874 25.2339 19.4316 26.0979 19.4316 26.9958C19.4316 27.8937 19.7874 28.7577 20.4227 29.393L24.4971 33.4673C25.1578 34.128 26.0218 34.4584 26.8942 34.4584C27.7667 34.4584 28.6307 34.128 29.2914 33.4673L33.3658 29.393C34.0011 28.7577 34.3568 27.8937 34.3568 26.9958C34.3568 26.0979 34.0011 25.2339 33.3658 24.5986L29.2914 20.5243C28.6307 19.8636 27.7667 19.5332 26.8942 19.5332Z" fill="currentColor"/>
<path d="M26.8946 13.5359C34.3317 13.5359 40.3628 19.567 40.3628 27.0042C40.3628 34.4414 34.3317 40.4724 26.8946 40.4724C19.4574 40.4724 13.4263 34.4414 13.4263 27.0042C13.4263 19.567 19.4574 13.5359 26.8946 13.5359ZM26.8946 10.1477C17.6023 10.1477 10.0381 17.7119 10.0381 27.0042C10.0381 36.2964 17.6023 43.8606 26.8946 43.8606C36.1868 43.8606 43.751 36.2964 43.751 27.0042C43.751 17.7119 36.1868 10.1477 26.8946 10.1477Z" fill="currentColor"/>
<path d="M54.0003 26.9958C54.0003 29.4268 53.67 31.8494 53.0262 34.1958C52.9246 34.5515 52.7128 34.865 52.4248 35.0937C52.1368 35.3224 51.7726 35.441 51.3999 35.441C51.2474 35.441 51.0949 35.424 50.9509 35.3817C50.5189 35.2631 50.1547 34.9751 49.9345 34.5854C49.7142 34.1958 49.6549 33.7384 49.7735 33.3064C51.0695 28.6137 50.8832 23.633 49.2399 19.0504C47.5966 14.4678 44.5811 10.5035 40.5999 7.69978C36.6187 4.89602 31.8667 3.38825 27.0046 3.38825C23.557 3.37131 20.1434 4.12519 17.0178 5.58213C13.8921 7.03907 11.1222 9.17366 8.91987 11.825H11.8253C12.4267 11.825 12.9858 12.1468 13.2907 12.672C13.5956 13.1972 13.5956 13.841 13.2907 14.3577C12.9858 14.8744 12.4352 15.2047 11.8253 15.2047H5.06575C4.61681 15.2047 4.18481 15.0268 3.8714 14.7134C3.55799 14.4 3.38011 13.968 3.38011 13.5191V6.75107C3.38011 6.14966 3.70199 5.5906 4.22717 5.28566C4.75234 4.98072 5.39611 4.98072 5.91281 5.28566C6.42952 5.5906 6.75987 6.14119 6.75987 6.75107V9.15672C9.28411 6.26825 12.3928 3.95578 15.8912 2.38025C19.3726 0.79625 23.1674 -0.0169259 26.9961 1.52261e-05C34.1538 1.52261e-05 41.0149 2.8546 46.0803 7.92001C51.1458 12.977 53.9919 19.8466 54.0003 27.0042V26.9958ZM48.9349 38.8122H42.1839C41.5825 38.8122 41.0234 39.1341 40.7185 39.6593C40.4135 40.1845 40.4135 40.8282 40.7185 41.345C41.0234 41.8617 41.574 42.192 42.1839 42.192H45.0893C42.8785 44.8433 40.1171 46.9779 36.9914 48.4348C33.8658 49.8918 30.4521 50.6457 27.0046 50.6287C22.134 50.6287 17.3905 49.121 13.4093 46.3172C9.42811 43.5134 6.41258 39.5492 4.76928 34.9666C3.12599 30.384 2.93964 25.4033 4.23564 20.7106C4.3627 20.2786 4.31187 19.8043 4.09164 19.4061C3.8714 19.008 3.4987 18.72 3.0667 18.593C2.62622 18.4744 2.16034 18.5337 1.7707 18.7624C1.38105 18.9911 1.09305 19.3638 0.982931 19.8042C-0.499422 25.1661 -0.279187 30.8584 1.59281 36.0932C3.47328 41.328 6.92081 45.8598 11.4695 49.0701C16.0182 52.272 21.4479 54 27.013 54C30.8502 54.017 34.6366 53.2038 38.1349 51.6282C41.6248 50.0527 44.742 47.7402 47.2662 44.8518V47.2574C47.2662 47.8588 47.5881 48.4179 48.1133 48.7228C48.6385 49.0278 49.2822 49.0278 49.7989 48.7228C50.3156 48.4179 50.646 47.8673 50.646 47.2574V40.5064C50.646 40.0574 50.4681 39.6254 50.1547 39.312C49.8413 38.9986 49.4093 38.8207 48.9603 38.8207L48.9349 38.8122Z" fill="currentColor"/>
</g>
<defs>
<clipPath id="clip0_354_152">
<rect width="54" height="54" fill="white"/>
</clipPath>
</defs>
</svg>
