<svg width="47" height="34" viewBox="0 0 47 34" fill="none" xmlns="http://www.w3.org/2000/svg">
<g clip-path="url(#clip0_354_142)">
<path d="M16.7223 26.9102H8.78176C8.1015 26.9102 7.54492 26.3554 7.54492 25.6772C7.54492 24.9991 8.1015 24.4442 8.78176 24.4442H16.7161C17.3964 24.4442 17.9529 24.9991 17.9529 25.6772C17.9529 26.3554 17.3964 26.9102 16.7161 26.9102H16.7223Z" fill="currentColor"/>
<path d="M42.2815 2.466C43.5121 2.466 44.5263 3.4709 44.5263 4.7039V29.2961C44.5263 30.5229 43.5183 31.534 42.2815 31.534H4.71855C3.4879 31.534 2.47368 30.5291 2.47368 29.2961V4.7039C2.47368 3.47706 3.48171 2.466 4.71855 2.466H42.2876M42.2876 0H4.71855C2.115 0 0 2.10843 0 4.7039V29.2961C0 31.8916 2.115 34 4.71855 34H42.2876C44.8912 34 47.0062 31.8916 47.0062 29.2961V4.7039C47.0062 2.10843 44.8912 0 42.2876 0Z" fill="currentColor"/>
<path d="M15.6274 9.85165C15.6274 9.85165 15.6335 9.85166 15.6335 9.85782V13.9575C15.6335 13.9575 15.6335 13.9637 15.6274 13.9637H9.69052C9.69052 13.9637 9.68434 13.9637 9.68434 13.9575V9.85782C9.68434 9.85782 9.68434 9.85165 9.69052 9.85165H15.6274ZM15.6274 7.76172H9.69052C8.53407 7.76172 7.58789 8.70496 7.58789 9.85782V13.9575C7.58789 15.1104 8.53407 16.0536 9.69052 16.0536H15.6274C16.7838 16.0536 17.73 15.1104 17.73 13.9575V9.85782C17.73 8.70496 16.7838 7.76172 15.6274 7.76172Z" fill="currentColor"/>
<path d="M38.1133 29.4934C37.3403 29.4934 36.592 29.2715 35.9427 28.8707C35.2933 29.2715 34.545 29.4934 33.772 29.4934C31.4777 29.4934 29.6162 27.6316 29.6162 25.3505C29.6162 23.0695 31.4838 21.2076 33.772 21.2076C34.545 21.2076 35.2933 21.4296 35.9427 21.8303C36.592 21.4296 37.3465 21.2076 38.1133 21.2076C40.4077 21.2076 42.2691 23.0695 42.2691 25.3505C42.2691 27.6316 40.4015 29.4934 38.1133 29.4934ZM35.9427 26.0472C36.2952 26.0472 36.6291 26.1951 36.8641 26.4602C37.1919 26.8301 37.6371 27.0274 38.1133 27.0274C39.0409 27.0274 39.7954 26.2753 39.7954 25.3505C39.7954 24.4258 39.0409 23.6736 38.1133 23.6736C37.6371 23.6736 37.1919 23.8771 36.8641 24.2408C36.3941 24.7648 35.485 24.7648 35.0212 24.2408C34.6934 23.8709 34.2482 23.6736 33.772 23.6736C32.8444 23.6736 32.0899 24.4258 32.0899 25.3505C32.0899 26.2753 32.8444 27.0274 33.772 27.0274C34.2482 27.0274 34.6934 26.824 35.0212 26.4602C35.2562 26.1951 35.5902 26.0472 35.9427 26.0472Z" fill="currentColor"/>
</g>
<defs>
<clipPath id="clip0_354_142">
<rect width="47" height="34" fill="white"/>
</clipPath>
</defs>
</svg>
