<svg width="53" height="46" viewBox="0 0 53 46" fill="none" xmlns="http://www.w3.org/2000/svg">
<g clip-path="url(#clip0_354_180)">
<path d="M30.3412 2.84258L36.7226 9.21706L30.3412 15.5915L23.9599 9.21706L30.3412 2.84258ZM30.3412 0C29.6156 0 28.8828 0.277151 28.3279 0.831454L21.9466 7.20593C20.8368 8.31454 20.8368 10.1125 21.9466 11.2282L28.3279 17.6027C28.8828 18.157 29.6085 18.4341 30.3412 18.4341C31.074 18.4341 31.7996 18.157 32.3545 17.6027L38.7359 11.2282C39.2694 10.6952 39.5682 9.97034 39.5682 9.21706C39.5682 8.46377 39.2694 7.73892 38.7359 7.20593L32.3545 0.831454C31.7996 0.277151 31.074 0 30.3412 0Z" fill="currentColor"/>
<path d="M14.4772 46C14.1001 46 13.7373 45.8507 13.4741 45.5807L0.419732 32.5475C0.149396 32.2774 0 31.9221 0 31.5455C0 31.1688 0.149396 30.8064 0.419732 30.5435L8.86416 22.1081C9.1345 21.8381 9.4902 21.6888 9.86725 21.6888H26.998C29.5875 21.6888 31.7929 23.4086 32.5185 25.7608L45.2741 17.3681C45.2741 17.3681 45.3595 17.3184 45.3737 17.3042C46.1918 16.8351 47.0882 16.5935 47.9846 16.5935C50.7519 16.5935 53 18.8391 53 21.6035C53 23.0959 52.3384 24.503 51.193 25.4552C51.1859 25.4623 51.1148 25.5121 51.1076 25.5263L32.2482 40.8975C31.9921 41.1036 31.6791 41.2173 31.3518 41.2173H19.8483L15.4803 45.5807C15.2099 45.8507 14.8542 46 14.4772 46V46ZM3.43611 31.5384L14.4772 42.5676L18.2548 38.794C18.5251 38.524 18.8808 38.3747 19.2579 38.3747H30.8325L49.322 23.302C49.322 23.302 49.3932 23.2451 49.4003 23.238C49.8627 22.8543 50.1544 22.2431 50.1544 21.5964C50.1544 20.4026 49.1797 19.429 47.9846 19.429C47.5791 19.429 47.1807 19.5356 46.8179 19.7488L32.5114 29.1648C31.7787 31.5099 29.5875 33.2155 26.998 33.2155H18.0698C17.2872 33.2155 16.647 32.5759 16.647 31.7942C16.647 31.0125 17.2872 30.3729 18.0698 30.3729H26.998C28.6129 30.3729 29.9219 29.0582 29.9219 27.4521C29.9219 25.8461 28.6129 24.5314 26.998 24.5314H10.4577L3.43611 31.5455V31.5384Z" fill="currentColor"/>
</g>
<defs>
<clipPath id="clip0_354_180">
<rect width="53" height="46" fill="white"/>
</clipPath>
</defs>
</svg>
